# xmcd
#
# Track frame offsets:
#	150
#	18892
#	36407
#	56965
#	70897
#	83625
#	102105
#	123937
#	139595
#	162400
#	177102
#
# Disc length: 2640 seconds
#
# Revision: 0
# Processed by: cddbd v1.5.2PL0 Copyright (c) Steve Scherf et al.
# Submitted via: dBpowerAMP V4.0
#
DISCID=8d0a4e0b
DTITLE=Various Artist - Chicago-Living Legends Southside Blues
DYEAR=1900
DGENRE=Blues
TTITLE0=Mississippi Sheiks - A Wonderful Thing
TTITLE1=Mama Yancey - Four O'Clock Blues
TTITLE2=Little Brother Montgomery - New Satellite Blues
TTITLE3=Mama Yancey - How Long Blues
TTITLE4=Henry Benson - Jelly Jelly
TTITLE5=Mississippi Sheiks - I Knew You Were Kiddin' All The Time
TTITLE6=Mama Yancey - Mama Yancey'S Blues
TTITLE7=Henry Benson - Jelly Roll Baker
TTITLE8=Mama Yancey - Make Me A Pallet On The Floor
TTITLE9=Mississippi Sheiks - Things 'Bout Comin' My Way
TTITLE10=Mama Yancey - The Santa Fe Blues
EXTD=
EXTT0=
EXTT1=
EXTT2=
EXTT3=
EXTT4=
EXTT5=
EXTT6=
EXTT7=
EXTT8=
EXTT9=
EXTT10=
PLAYORDER=
